M48
METRIC,0000.00
T01C0.486
T02C0.9
T03C1.02
T04C1.14
T05C1.3
T06C2.997
%
T01
X+002734Y+000343
X+002540Y+000747
X+002734Y+000889
X+001773Y+000889
X+001143Y+001270
X+000907Y+002487
X+001270Y+004234
X+003258Y+002667
X+003096Y+001803
X+002724Y+001903
X+005224Y+003001
X+005842Y+002850
X+006223Y+002647
X+006604Y+002343
X+007212Y+002286
X+007874Y+003175
X+008011Y+003772
X+006460Y+003306
X+006096Y+003417
X+005461Y+001382
X+005606Y+000607
X+006041Y+000475
X+006292Y+000985
X+006475Y+000985
T02
X+000762Y+002032
X+001016Y+002032
X+001270Y+002032
X+001524Y+002032
X+001778Y+002032
X+002032Y+002032
X+002286Y+002032
X+002540Y+002032
X+002540Y+001524
X+002286Y+001524
X+002032Y+001524
X+001778Y+001524
X+001524Y+001524
X+001270Y+001524
X+001016Y+001524
X+000762Y+001524
X+000762Y+000254
X+001016Y+000254
X+001270Y+000254
X+001524Y+000254
X+001778Y+000254
X+002032Y+000254
X+002286Y+000254
X+002540Y+000254
X+003175Y+002032
X+003429Y+002032
X+003683Y+002032
X+003937Y+002032
X+004191Y+002032
X+004445Y+002032
X+004699Y+002032
X+004953Y+002032
X+004953Y+003302
X+004699Y+003302
X+004445Y+003302
X+004191Y+003302
X+003937Y+003302
X+003683Y+003302
X+003429Y+003302
X+003175Y+003302
X+002540Y+003302
X+002286Y+003302
X+002032Y+003302
X+001778Y+003302
X+001524Y+003302
X+001270Y+003302
X+001016Y+003302
X+000762Y+003302
T03
X+004953Y+003937
X+004699Y+003937
X+004445Y+003937
X+004191Y+003937
X+003810Y+003937
X+003556Y+003937
X+003302Y+003937
X+003048Y+003937
X+002667Y+003937
X+002413Y+003937
X+002159Y+003937
X+001905Y+003937
X+001524Y+003937
X+001270Y+003937
X+001016Y+003937
X+000762Y+003937
X+000508Y+003937
X+000254Y+003937
X+005334Y+003937
X+005588Y+003937
X+005842Y+003937
X+006223Y+003937
X+006477Y+003937
X+006731Y+003937
X+007112Y+003937
X+007366Y+003937
X+007620Y+003937
X+008128Y+003937
X+008382Y+003937
X+008636Y+003937
X+009017Y+003937
X+009271Y+003937
T04
X+007112Y+003429
X+007112Y+003175
X+007112Y+002921
X+007366Y+002921
X+007366Y+003175
X+007366Y+003429
T05
X+007620Y+002286
X+007874Y+002286
X+008128Y+002286
X+008382Y+002286
T06
X+000254Y+003302
X+000254Y+000762
X+009271Y+000762
X+009271Y+003302
T00
M30
